<?xml version="1.0" encoding="UTF-8"?>
<svg xmlns="http://www.w3.org/2000/svg" xmlns:xlink="http://www.w3.org/1999/xlink" width="2100" height="2100" viewBox="0 0 2100 2100">
<rect x="-210" y="-210" width="2520" height="2520" fill="rgb(97.65625%, 97.65625%, 97.65625%)" fill-opacity="1"/>
<path fill-rule="nonzero" fill="rgb(7.835388%, 17.651367%, 9.423828%)" fill-opacity="1" d="M 664.449219 1362.449219 C 621.683594 1497.304688 452.039062 1559.660156 411.925781 1609.574219 C 360.167969 1673.972656 402.546875 1715.855469 453.847656 1720.964844 C 498.476562 1725.40625 532.578125 1699.738281 550.417969 1681.882812 C 522.355469 1720.289062 477.585938 1812.550781 543.421875 1826.578125 C 628.664062 1844.742188 688.6875 1738.589844 688.6875 1738.589844 C 688.6875 1738.589844 660.886719 1923.890625 749.035156 1895.894531 C 787.847656 1883.570312 820.199219 1822.976562 830.203125 1789.378906 C 821.949219 1837.605469 847.113281 1917.632812 882.054688 1920.570312 C 939.945312 1925.441406 973.027344 1852.960938 973.753906 1790.183594 C 974.914062 1844.183594 1000.46875 1926.410156 1054.511719 1924.097656 C 1102.570312 1922.039062 1133.519531 1866.296875 1130.949219 1796.539062 C 1133.679688 1856.207031 1160.058594 1925.65625 1218.480469 1913.019531 C 1267.519531 1899.925781 1279.460938 1852.960938 1280.191406 1790.183594 C 1288.519531 1846.351562 1335.179688 1890.273438 1368.101562 1888.832031 C 1405.671875 1887.191406 1433.488281 1813.640625 1427.339844 1752.703125 C 1464.890625 1827.957031 1540.730469 1844.789062 1560.628906 1824.144531 C 1594.558594 1788.941406 1582.191406 1728.089844 1552.910156 1689.027344 C 1590.230469 1711.230469 1627.070312 1702.289062 1647.191406 1700.96875 C 1706.808594 1697.046875 1757.089844 1594.203125 1644.640625 1548.574219 C 1527.980469 1501.234375 1441.019531 1416.003906 1401.410156 1324.464844 C 1146.660156 1334.433594 918.765625 1394.253906 664.449219 1362.449219 Z M 664.449219 1362.449219 "/>
<path fill-rule="nonzero" fill="rgb(21.972656%, 27.830505%, 10.594177%)" fill-opacity="1" d="M 1249.398438 1110.871094 C 1090.128906 1160.945312 940.371094 1139.394531 804.140625 1122.96875 C 759.910156 1257.824219 608.804688 1285.046875 567.316406 1334.960938 C 513.785156 1399.359375 557.617188 1441.242188 610.671875 1446.351562 C 675.3125 1452.574219 718.789062 1399.652344 724.28125 1392 C 703.085938 1407.898438 622.425781 1535.300781 703.316406 1551.964844 C 791.480469 1570.128906 853.554688 1451.773438 853.554688 1451.773438 C 853.554688 1451.773438 823.203125 1631.167969 915.976562 1609.078125 C 970.992188 1595.976562 997.242188 1470.304688 997.242188 1470.304688 C 999.242188 1519.925781 1014.160156 1640.859375 1086.199219 1628.960938 C 1148.101562 1618.734375 1150.589844 1535.457031 1148.019531 1457.683594 C 1138.679688 1520.339844 1198.96875 1603.71875 1239.308594 1602.015625 C 1289.511719 1599.894531 1322.929688 1498.136719 1285.421875 1426.328125 C 1292.71875 1526.820312 1412.980469 1575.058594 1438.429688 1549.53125 C 1485.191406 1502.625 1446.941406 1410.179688 1395.558594 1384.417969 C 1444.238281 1442.832031 1500.820312 1428.078125 1527.960938 1426.355469 C 1589.621094 1422.433594 1637.910156 1328.765625 1525.320312 1273.960938 C 1384.179688 1205.261719 1249.398438 1110.871094 1249.398438 1110.871094 Z M 1249.398438 1110.871094 "/>
<path fill-rule="nonzero" fill="rgb(35.301208%, 44.309998%, 17.259216%)" fill-opacity="1" d="M 856.863281 899.941406 C 812.632812 1034.800781 678.125 1053.019531 639.847656 1105.835938 C 592.054688 1171.78125 630.148438 1212.117188 683.203125 1217.226562 C 747.84375 1223.449219 773.070312 1194.578125 778.5625 1186.929688 C 772.125 1196.351562 703.984375 1301.726562 784.695312 1319.375 C 867.476562 1337.472656 907.082031 1213.132812 907.082031 1213.132812 C 907.082031 1213.132812 882.25 1398.152344 972.304688 1366.242188 C 1024.660156 1347.6875 1036.460938 1220.910156 1036.460938 1220.910156 C 1036.460938 1220.910156 1071.449219 1389.136719 1142.160156 1370.878906 C 1200.78125 1355.742188 1208.390625 1272.667969 1187.179688 1218.085938 C 1211.730469 1292.105469 1298.949219 1338.863281 1331.691406 1313.398438 C 1368.449219 1284.789062 1363.648438 1246.792969 1317.359375 1181.214844 C 1348.449219 1198.558594 1413.808594 1207.664062 1439.5 1192.925781 C 1465.601562 1177.953125 1492 1134.671875 1427.859375 1070.878906 C 1375.230469 1018.53125 1302.71875 1037.621094 1228.890625 890.101562 C 1061.78125 935.660156 979.535156 914.410156 856.863281 899.941406 Z M 856.863281 899.941406 "/>
<path fill-rule="evenodd" fill="rgb(94.139099%, 82.8125%, 31.37207%)" fill-opacity="1" d="M 1064.578125 141.910156 C 1060.21875 142.011719 1056.441406 144.960938 1055.289062 149.171875 L 1038.5 210.660156 L 979.5625 214.050781 C 975.378906 214.289062 971.804688 217.160156 970.65625 221.191406 C 969.507812 225.21875 971.035156 229.53125 974.460938 231.949219 L 1023.339844 266.269531 L 1005.710938 330.890625 C 1004.589844 335.03125 1006.261719 339.429688 1009.859375 341.761719 C 1013.460938 344.089844 1018.160156 343.828125 1021.46875 341.109375 L 1071.519531 300.089844 L 1113.410156 329.5 C 1116.871094 331.941406 1121.5 331.890625 1124.921875 329.378906 C 1128.328125 326.871094 1129.761719 322.460938 1128.46875 318.429688 L 1111.988281 266.921875 L 1167.878906 221.109375 C 1171.179688 218.398438 1172.359375 213.871094 1170.808594 209.898438 C 1169.261719 205.921875 1165.320312 203.390625 1161.058594 203.640625 L 1092.988281 207.539062 L 1074.179688 148.761719 C 1072.839844 144.609375 1068.941406 141.820312 1064.578125 141.910156 Z M 1065.550781 186.449219 L 1072.660156 208.699219 L 1059.261719 209.480469 Z M 1131.949219 225.058594 L 1105.519531 246.71875 L 1099.191406 226.941406 Z M 1078.871094 228.109375 L 1089.121094 260.160156 L 1070.601562 275.359375 L 1046 258.089844 L 1053.789062 229.550781 Z M 1033.03125 230.730469 L 1028.859375 246.050781 L 1009 232.109375 Z M 1040.488281 278.308594 L 1054.769531 288.328125 L 1032.851562 306.300781 Z M 1095.589844 280.371094 L 1100.75 296.53125 L 1087.339844 287.109375 Z M 1095.589844 280.371094 "/>
<path fill-rule="nonzero" fill="rgb(64.256287%, 66.601562%, 36.083984%)" fill-opacity="1" d="M 691.863281 861.558594 C 639.160156 912.191406 699.085938 962.289062 753.203125 965.210938 C 845.847656 970.210938 874.757812 897.871094 874.757812 897.871094 C 874.757812 897.871094 774.46875 1029.210938 854.777344 1081.648438 C 939.410156 1136.921875 1009.730469 940.429688 1009.730469 940.429688 C 1009.730469 940.429688 970.15625 1151.683594 1094.460938 1119.773438 C 1166.738281 1101.21875 1151.621094 949.328125 1151.621094 949.328125 C 1151.621094 949.328125 1205.230469 1110.972656 1281.339844 1086.179688 C 1365.238281 1058.851562 1308.539062 934.238281 1242.558594 898.679688 C 1252.558594 950.019531 1327.960938 988.988281 1377.339844 976.28125 C 1406.558594 968.769531 1494.5 930.578125 1422.039062 860.371094 C 1365.960938 806.03125 1239.679688 764.589844 1176.230469 656.460938 C 1085.441406 501.730469 1112.308594 370.28125 1064.351562 371.980469 C 1039.808594 372.851562 1015.539062 563.398438 931.421875 677.050781 C 849.914062 787.160156 740.757812 814.578125 691.863281 861.558594 Z M 691.863281 861.558594 "/>
<path fill-rule="evenodd" fill="rgb(100%, 100%, 100%)" fill-opacity="1" d="M 1082.269531 868.78125 L 1073.449219 852.148438 L 1082.269531 835.53125 L 1091.089844 852.148438 Z M 1082.269531 868.78125 "/>
<path fill-rule="evenodd" fill="rgb(94.139099%, 82.8125%, 31.37207%)" fill-opacity="1" d="M 645.808594 1712.511719 L 632.894531 1688.171875 L 645.808594 1663.832031 L 658.722656 1688.171875 Z M 645.808594 1712.511719 "/>
<path fill-rule="evenodd" fill="rgb(94.139099%, 82.8125%, 31.37207%)" fill-opacity="1" d="M 1033.191406 1694.921875 L 1027.261719 1683.753906 L 1033.191406 1672.585938 L 1039.109375 1683.753906 Z M 1033.191406 1694.921875 "/>
<path fill-rule="evenodd" fill="rgb(100%, 100%, 100%)" fill-opacity="1" d="M 1215.128906 1432.277344 L 1223.949219 1415.652344 L 1215.128906 1399.027344 L 1206.308594 1415.652344 Z M 1215.128906 1432.277344 "/>
<path fill-rule="evenodd" fill="rgb(100%, 100%, 100%)" fill-opacity="1" d="M 625.328125 1562.429688 L 619.78125 1551.976562 L 625.328125 1541.527344 L 630.871094 1551.976562 Z M 625.328125 1562.429688 "/>
<path fill-rule="evenodd" fill="rgb(100%, 100%, 100%)" fill-opacity="1" d="M 906.832031 1784 L 918.015625 1805.070312 L 906.832031 1826.140625 L 895.652344 1805.070312 Z M 906.832031 1784 "/>
<path fill-rule="evenodd" fill="rgb(100%, 100%, 100%)" fill-opacity="1" d="M 676.824219 1369.984375 L 684.824219 1385.0625 L 676.824219 1400.144531 L 668.820312 1385.0625 Z M 676.824219 1369.984375 "/>
<path fill-rule="evenodd" fill="rgb(100%, 100%, 100%)" fill-opacity="1" d="M 805.449219 1633.417969 L 814.269531 1650.042969 L 805.449219 1666.664062 L 796.628906 1650.042969 Z M 805.449219 1633.417969 "/>
<path fill-rule="evenodd" fill="rgb(94.139099%, 82.8125%, 31.37207%)" fill-opacity="1" d="M 1543.828125 1565.140625 L 1556.75 1589.480469 L 1543.828125 1613.820312 L 1530.921875 1589.480469 Z M 1543.828125 1565.140625 "/>
<path fill-rule="evenodd" fill="rgb(100%, 100%, 100%)" fill-opacity="1" d="M 891.429688 966.140625 L 878.515625 941.800781 L 891.429688 917.460938 L 904.34375 941.800781 Z M 891.429688 966.140625 "/>
<path fill-rule="evenodd" fill="rgb(100%, 100%, 100%)" fill-opacity="1" d="M 756.191406 1150.730469 L 747.371094 1134.109375 L 756.191406 1117.484375 L 765.011719 1134.109375 Z M 756.191406 1150.730469 "/>
<path fill-rule="evenodd" fill="rgb(100%, 100%, 100%)" fill-opacity="1" d="M 1259.621094 1029.289062 L 1250.800781 1012.671875 L 1259.621094 996.039062 L 1268.441406 1012.671875 Z M 1259.621094 1029.289062 "/>
<path fill-rule="evenodd" fill="rgb(94.139099%, 82.8125%, 31.37207%)" fill-opacity="1" d="M 1255.910156 878.230469 L 1243.910156 855.601562 L 1255.910156 832.96875 L 1267.921875 855.601562 Z M 1255.910156 878.230469 "/>
<path fill-rule="evenodd" fill="rgb(100%, 100%, 100%)" fill-opacity="1" d="M 1069.128906 1193.882812 L 1060.308594 1177.257812 L 1069.128906 1160.636719 L 1077.949219 1177.257812 Z M 1069.128906 1193.882812 "/>
<path fill-rule="evenodd" fill="rgb(94.139099%, 82.8125%, 31.37207%)" fill-opacity="1" d="M 869.976562 1407.675781 L 857.0625 1383.335938 L 869.976562 1358.996094 L 882.890625 1383.335938 Z M 869.976562 1407.675781 "/>
<path fill-rule="evenodd" fill="rgb(94.139099%, 82.8125%, 31.37207%)" fill-opacity="1" d="M 1269.390625 1240.5625 L 1287.539062 1206.335938 L 1269.390625 1172.113281 L 1251.230469 1206.335938 Z M 1269.390625 1240.5625 "/>
<path fill-rule="evenodd" fill="rgb(100%, 100%, 100%)" fill-opacity="1" d="M 1079.410156 612.179688 L 1066.5 587.839844 L 1079.410156 563.5 L 1092.328125 587.839844 Z M 1079.410156 612.179688 "/>
<path fill-rule="evenodd" fill="rgb(94.139099%, 82.8125%, 31.37207%)" fill-opacity="1" d="M 950.730469 769.609375 L 941.910156 752.980469 L 950.730469 736.359375 L 959.550781 752.980469 Z M 950.730469 769.609375 "/>
<path fill-rule="evenodd" fill="rgb(94.139099%, 82.8125%, 31.37207%)" fill-opacity="1" d="M 1335.910156 1654.492188 L 1325.359375 1638.242188 L 1335.910156 1621.992188 L 1346.46875 1638.242188 Z M 1335.910156 1654.492188 "/>
<path fill-rule="evenodd" fill="rgb(94.139099%, 82.8125%, 31.37207%)" fill-opacity="1" d="M 1080.351562 1527.292969 L 1069.800781 1511.042969 L 1080.351562 1494.792969 L 1090.910156 1511.042969 Z M 1080.351562 1527.292969 "/>
<path fill-rule="evenodd" fill="rgb(94.139099%, 82.8125%, 31.37207%)" fill-opacity="1" d="M 1383.589844 1480.28125 L 1377.660156 1471.160156 L 1383.589844 1462.039062 L 1389.511719 1471.160156 Z M 1383.589844 1480.28125 "/>
<path fill-rule="evenodd" fill="rgb(100%, 100%, 100%)" fill-opacity="1" d="M 1224.519531 1794.605469 L 1212.011719 1771.035156 L 1224.519531 1747.460938 L 1237.019531 1771.035156 Z M 1224.519531 1794.605469 "/>
<path fill-rule="evenodd" fill="rgb(100%, 100%, 100%)" fill-opacity="1" d="M 1412.621094 1326.394531 L 1421.441406 1309.769531 L 1412.621094 1293.148438 L 1403.800781 1309.769531 Z M 1412.621094 1326.394531 "/>
</svg>
